<svg xmlns="http://www.w3.org/2000/svg" viewBox="0 0 64 64" role="img" aria-labelledby="avatarTitle">
  <title id="avatarTitle">Support avatar</title>
  <circle cx="32" cy="32" r="32" fill="#f4e8dc"/>
  <path d="M12 34c0-12.4 8.2-22 20-22s20 9.6 20 22v17H12z" fill="#7b4a2e"/>
  <circle cx="32" cy="28" r="14" fill="#f6c79f"/>
  <path d="M18 27c1.8-8 6.8-13 14-13s12.2 5 14 13c-1.3-3.6-4.2-6-7.6-6H25.6c-3.4 0-6.3 2.4-7.6 6Z" fill="#62351f"/>
  <circle cx="27" cy="29" r="1.6" fill="#2d1f17"/>
  <circle cx="37" cy="29" r="1.6" fill="#2d1f17"/>
  <path d="M27 35c1.3 1.5 2.9 2.2 5 2.2 2.1 0 3.7-.7 5-2.2" fill="none" stroke="#9a5a39" stroke-linecap="round" stroke-width="2"/>
  <path d="M24 46h16c-.8 4.4-3.3 6.8-8 6.8S24.8 50.4 24 46Z" fill="#2f78c8"/>
</svg>
